<?xml version="1.0" encoding="UTF-8"?>
<svg width="53px" height="50px" viewBox="0 0 53 50" version="1.1" xmlns="http://www.w3.org/2000/svg" xmlns:xlink="http://www.w3.org/1999/xlink">
    <!-- Generator: Sketch 41.2 (35397) - http://www.bohemiancoding.com/sketch -->
    <title>Handshake</title>
    <desc>Created with Sketch.</desc>
    <defs></defs>
    <g id="Page-1" stroke="none" stroke-width="1" fill="none" fill-rule="evenodd">
        <g id="Home_Page_Concept" transform="translate(-1112.000000, -1393.000000)" stroke="#A51FEA">
            <g id="Part-004" transform="translate(0.000000, 1206.000000)">
                <path d="M1158.71499,222.80162 C1157.52482,223.992399 1155.59483,223.999605 1154.41126,222.854463 C1154.37402,222.81363 1154.3386,222.770394 1154.29896,222.731362 L1154.29596,222.734965 L1147.532,215.070862 L1147.08283,215.46959 L1153.74231,222.994378 L1153.92966,223.226169 C1153.93266,223.229171 1153.93687,223.230973 1153.93987,223.234576 C1154.49052,223.821859 1154.84001,224.621116 1154.89165,225.455802 C1154.9469,226.351139 1154.66647,227.152798 1154.1008,227.717863 C1153.50811,228.311751 1152.73107,228.62701 1151.92281,228.609596 C1151.13436,228.595184 1150.39515,228.248699 1149.83669,227.655411 C1149.66135,227.175617 1149.39113,226.725246 1149.00921,226.343332 L1142.3107,218.1562 L1141.84592,218.536312 L1148.56485,226.745663 C1149.76704,227.947852 1149.76704,229.904261 1148.56485,231.106449 C1147.98237,231.688928 1147.20833,232.009592 1146.38445,232.009592 C1145.56118,232.009592 1144.78714,231.688928 1144.22148,231.125065 L1142.36295,228.927858 C1142.19181,228.66364 1141.99725,228.410232 1141.75164,228.185647 L1141.74264,228.195255 L1141.05447,227.381586 C1140.92657,226.57212 1140.53324,225.834114 1139.91834,225.273252 C1138.98097,224.417549 1137.73794,224.167743 1136.60962,224.484203 C1137.40947,223.098264 1137.23113,221.297983 1136.04695,220.113809 C1135.36179,219.429246 1134.45144,219.052136 1133.48284,219.052136 C1133.20902,219.052136 1132.9412,219.085764 1132.68058,219.144012 C1133.29069,218.475062 1133.62876,217.617557 1133.62876,216.706007 C1133.62876,215.738011 1133.25165,214.827662 1132.56649,214.143099 C1131.88193,213.458536 1130.97218,213.081426 1130.00358,213.081426 C1129.07222,213.081426 1128.1973,213.433316 1127.52414,214.067437 C1127.79256,212.89107 1127.47911,211.607814 1126.56516,210.693863 C1125.19723,209.325938 1123.00543,209.294712 1121.58466,210.574965 L1121.57745,210.567759 L1121.5102,210.635615 C1121.48738,210.657233 1121.46096,210.671644 1121.43874,210.693863 L1121.44535,210.700468 L1118.26873,213.885487 L1116.19223,211.302163 C1114.49643,208.873165 1113.60049,206.017217 1113.60049,203.043571 C1113.60049,195.079822 1120.07922,188.600494 1128.04297,188.600494 C1131.75342,188.600494 1135.26091,189.999644 1137.95232,192.540334 L1128.84463,202.610615 L1129.03258,202.812381 C1129.1701,202.960103 1132.44579,206.411141 1135.75571,204.959147 C1137.30979,204.276385 1138.49877,203.074197 1139.54783,202.013724 C1140.66715,200.881794 1141.63515,199.90419 1142.72925,199.83153 C1143.48887,199.780488 1144.77873,200.059117 1146.27637,200.381582 C1149.18816,201.007297 1152.81214,201.785537 1154.92528,200.641596 L1154.63944,200.113762 C1152.72026,201.152016 1149.21638,200.398997 1146.40247,199.794299 C1144.8604,199.462226 1143.5231,199.17459 1142.68962,199.232237 C1141.36733,199.319909 1140.27623,200.423617 1139.12088,201.591577 C1138.10965,202.613618 1136.96331,203.772571 1135.51371,204.409094 C1133.01806,205.505596 1130.3939,203.282568 1129.66731,202.596203 L1138.87708,192.411228 C1141.54808,189.954007 1145.01953,188.600494 1148.65192,188.600494 C1156.61567,188.600494 1163.0944,195.079822 1163.0944,203.043571 C1163.0944,206.87292 1161.61118,210.480087 1158.93658,213.185312 L1156.6583,215.127309 L1144.70547,201.233082 L1144.2503,201.624604 L1158.7162,218.439633 L1158.71499,218.440834 C1159.29747,219.023313 1159.61874,219.79795 1159.61874,220.621227 C1159.61874,221.445104 1159.29747,222.219141 1158.71499,222.80162 L1158.71499,222.80162 Z M1141.5775,232.804045 C1140.47439,234.012239 1138.61466,234.113122 1137.38125,233.058655 L1140.15493,230.394864 C1140.68156,229.817189 1140.99682,229.1014 1141.07729,228.338173 L1141.87835,229.283951 C1142.56772,230.384055 1142.48965,231.802422 1141.5775,232.804045 L1141.5775,232.804045 Z M1134.99429,234.519056 C1133.86896,235.751269 1131.95279,235.839542 1130.72117,234.716018 C1130.13509,234.181578 1129.80842,233.475398 1129.80242,232.727182 C1129.79641,231.987374 1130.09786,231.245764 1130.65032,230.637464 L1135.34858,225.9386 C1136.47691,224.712992 1138.30301,224.61331 1139.5136,225.717017 C1140.1111,226.261665 1140.46058,227.005677 1140.49781,227.812741 C1140.53504,228.619804 1140.25581,229.39324 1139.72498,229.97572 L1134.99429,234.519056 Z M1125.80793,230.35283 C1124.57932,229.124219 1124.50546,227.042307 1125.644,225.904371 L1131.34449,220.538359 C1131.91556,219.967289 1132.67578,219.65263 1133.48284,219.65263 C1134.29111,219.65263 1135.05073,219.967289 1135.6224,220.538359 C1136.80177,221.717728 1136.80177,223.636907 1135.6224,224.815676 L1130.08585,230.35283 C1129.51478,230.923899 1128.75516,231.238558 1127.94689,231.238558 C1127.13863,231.238558 1126.379,230.923899 1125.80793,230.35283 L1125.80793,230.35283 Z M1120.48275,225.919384 C1119.33641,224.773041 1119.38145,222.932527 1120.58304,221.730339 L1120.64128,221.673292 C1120.77339,221.57361 1120.9085,221.477531 1121.0286,221.356832 L1124.97205,217.413389 L1127.86522,214.567648 C1128.43629,213.996579 1129.19592,213.68192 1130.00358,213.68192 C1130.81125,213.68192 1131.57087,213.995978 1132.14194,214.567648 C1132.71301,215.138718 1133.02827,215.898343 1133.02827,216.706007 C1133.02827,217.514272 1132.71301,218.273296 1132.14675,218.840762 L1124.76007,225.919384 C1124.189,226.491054 1123.42938,226.805112 1122.62171,226.805112 C1121.81345,226.805112 1121.05382,226.491054 1120.48275,225.919384 L1120.48275,225.919384 Z M1116.32674,220.932282 C1115.75567,220.361213 1115.44101,219.601588 1115.44101,218.793924 C1115.44101,218.055917 1115.71483,217.36595 1116.19463,216.815297 L1121.93775,211.057762 C1123.12252,209.946848 1124.98345,209.962461 1126.14061,211.118412 C1127.31998,212.297782 1127.31998,214.21636 1126.14061,215.395729 L1124.5493,216.987038 L1120.21734,221.248743 C1119.03616,222.091236 1117.38661,221.991554 1116.32674,220.932282 L1116.32674,220.932282 Z M1159.2122,218.09615 L1157.04983,215.582483 L1159.34491,213.624873 C1162.15042,210.789942 1163.69489,207.031451 1163.69489,203.043571 C1163.69489,194.74835 1156.94714,188 1148.65192,188 C1144.86821,188 1141.25263,189.40996 1138.45253,191.987279 L1138.35465,192.095368 C1135.55335,189.454997 1131.90295,188 1128.04297,188 C1119.74775,188 1113,194.74835 1113,203.043571 C1113,206.140919 1113.93377,209.115164 1115.71243,211.661859 L1117.84238,214.313039 L1115.916,216.244227 L1115.90219,216.230416 C1115.21702,216.914979 1114.84051,217.825327 1114.84051,218.793924 C1114.84051,219.76192 1115.21702,220.672269 1115.90219,221.356832 C1116.60897,222.063613 1117.53733,222.416703 1118.46569,222.416703 C1118.80798,222.416703 1119.14605,222.35245 1119.47753,222.256371 C1118.77315,223.60508 1118.95089,225.237223 1120.0582,226.343933 C1120.74277,227.029096 1121.65312,227.405606 1122.62171,227.405606 C1123.25583,227.405606 1123.86413,227.241071 1124.40038,226.937821 C1124.03648,228.231885 1124.36074,229.754738 1125.38338,230.777379 C1126.06795,231.461942 1126.9783,231.839052 1127.94689,231.839052 C1128.46272,231.839052 1128.96053,231.729161 1129.4181,231.525594 C1129.27518,231.916516 1129.19892,232.32365 1129.20252,232.732587 C1129.20973,233.649541 1129.60546,234.51185 1130.31644,235.159783 C1131.01181,235.793904 1131.88913,236.106161 1132.76165,236.10556 C1133.74286,236.10556 1134.71866,235.711637 1135.42424,234.9376 L1136.94349,233.4784 C1137.63106,234.085499 1138.48556,234.389349 1139.34006,234.389349 C1140.32487,234.389349 1141.30668,233.991822 1142.02067,233.208778 C1142.72204,232.439546 1143.01088,231.465545 1142.92141,230.517365 L1143.78011,231.530999 C1144.47548,232.226971 1145.40024,232.610086 1146.38445,232.610086 C1147.36806,232.610086 1148.29402,232.226971 1148.9894,231.530999 C1149.79586,230.723935 1150.13334,229.633438 1150.03666,228.581373 C1150.59392,228.946473 1151.23704,229.142234 1151.912,229.142234 L1151.97986,229.142234 C1152.93044,229.142234 1153.83238,228.801754 1154.52535,228.108184 C1155.21412,227.420018 1155.557,226.491054 1155.49094,225.420974 C1155.46152,224.943581 1155.34682,224.475196 1155.16488,224.038637 C1155.60324,224.213981 1156.06922,224.302854 1156.5346,224.302854 C1157.47798,224.302854 1158.42195,223.94436 1159.13954,223.226169 C1159.83552,222.530197 1160.21923,221.605436 1160.21923,220.621227 C1160.21923,219.673647 1159.86014,218.782515 1159.2122,218.09615 L1159.2122,218.09615 Z" id="Handshake"></path>
            </g>
        </g>
    </g>
</svg>