<?xml version="1.0" encoding="UTF-8"?>
<svg width="142px" height="41px" viewBox="0 0 142 41" version="1.1" xmlns="http://www.w3.org/2000/svg" xmlns:xlink="http://www.w3.org/1999/xlink">
    <!-- Generator: Sketch 41.2 (35397) - http://www.bohemiancoding.com/sketch -->
    <title>Group</title>
    <desc>Created with Sketch.</desc>
    <defs></defs>
    <g id="Page-1" stroke="none" stroke-width="1" fill="none" fill-rule="evenodd">
        <g id="Home_Page_Concept" transform="translate(-50.000000, -19.000000)">
            <g id="Part-001">
                <g id="Group" transform="translate(50.000000, 19.000000)">
                    <path d="M38.136,19.256 C40.344,18.744 42.008,18.52 43.256,18.52 C45.56,18.52 46.136,19.288 46.136,21.816 C44.856,21.784 43.928,21.816 42.424,21.816 C38.136,21.816 36.056,23.384 36.056,26.616 C36.056,30.008 37.784,31.288 41.144,31.288 C43.32,31.288 44.824,30.296 46.136,29.144 L46.136,31 L49.72,31 L49.72,21.816 C49.72,17.368 48.216,15.48 43.896,15.48 C42.264,15.48 40.696,15.736 37.56,16.536 L38.136,19.256 Z M46.136,24.088 L46.136,26.648 C45.112,27.768 43.768,28.632 42.264,28.632 C40.376,28.632 39.384,27.8 39.384,26.2 C39.384,24.472 40.536,24.088 42.872,24.088 L46.136,24.088 Z M64.6,16.76 C62.36,15.896 60.312,15.448 58.52,15.448 C55.064,15.448 53.144,17.144 53.144,20.088 C53.144,22.456 54.616,23.512 57.56,24.44 C60.248,25.272 61.496,25.368 61.496,26.904 C61.496,27.896 60.6,28.408 59.224,28.408 C57.208,28.408 55.512,27.768 53.72,26.712 L52.504,29.208 C54.456,30.488 56.696,31.288 59.224,31.288 C62.84,31.288 64.984,29.592 64.984,26.712 C64.984,23.736 63.512,22.936 60.056,21.88 C57.912,21.208 56.536,21.016 56.536,19.8 C56.536,18.808 57.272,18.264 58.584,18.264 C59.864,18.264 61.72,18.744 63.672,19.384 L64.6,16.76 Z M82.488,15.768 L78.232,15.768 L71.8,22.328 L71.8,10.2 L68.184,10.2 L68.184,31 L71.8,31 L71.8,27.096 L74.04,24.76 L78.904,31 L83.064,31 L83.064,30.744 L76.568,22.072 L82.488,16.024 L82.488,15.768 Z M88.92,15.8 L85.304,15.8 L85.304,31 L88.92,31 L88.92,21.24 C90.2,19.768 91.544,18.904 92.888,18.904 C94.584,18.904 95.096,19.992 95.096,22.392 L95.096,31 L98.712,31 L98.712,21.208 C100.184,19.64 101.464,18.904 102.68,18.904 C104.408,18.904 104.824,19.992 104.824,22.392 L104.824,31 L108.472,31 L108.472,21.432 C108.472,17.336 106.872,15.512 103.672,15.512 C101.848,15.512 100.28,16.28 98.296,18.328 C97.624,16.344 96.088,15.512 93.848,15.512 C91.928,15.512 90.424,16.44 88.92,17.944 L88.92,15.8 Z M112.184,11.352 C112.184,12.632 113.176,13.272 114.296,13.272 C115.416,13.272 116.408,12.632 116.408,11.352 C116.408,10.072 115.416,9.4 114.296,9.4 C113.176,9.4 112.184,10.072 112.184,11.352 Z M116.12,31 L116.12,15.8 L112.504,15.8 L112.504,31 L116.12,31 Z M123.864,31 L123.864,10.2 L120.248,10.2 L120.248,31 L123.864,31 Z M140.12,26.744 C138.2,27.96 136.696,28.44 134.648,28.44 C132.408,28.44 130.84,27.288 130.552,24.44 L141.368,24.44 C141.464,23.768 141.464,23.352 141.464,22.84 C141.4,18.072 138.84,15.48 134.584,15.512 C130.168,15.512 127.096,18.008 127.096,23.512 C127.096,28.856 130.168,31.288 134.488,31.288 C137.176,31.288 139.128,30.616 141.304,28.92 L140.12,26.744 Z M130.584,21.912 C130.968,19.32 132.504,18.232 134.584,18.232 C136.792,18.232 138.104,19.48 138.296,21.912 L130.584,21.912 Z" id="askmile" fill="#313131"></path>
                    <g id="Group-2" fill="#4285F4">
                        <path d="M20.0424269,28 L23.0201416,28 C23.0201416,28 24,28 24,27.0297241 C24,26.0594482 24,21.9950671 24,21.9950671 L28,21.9950638 L28,29.0079346 C28,29.0079346 28,32 25.015686,32 L17.9663544,32 L20.0424269,28 Z" id="Path"></path>
                        <path d="M24,22 L24,14.0292969 C24,14.0292969 24,13 23.0157471,13 C22.0314941,13 12,13 12,13 L18.9663544,0 L18.9904988,9 C18.9904988,9 21.9844971,9 24.9922485,9 C28,9 28,12.0292969 28,12.0292969 L28,22 L24,22 Z" id="Path"></path>
                        <path d="M10,9 L8,13 C8,13 6.01550293,13 5.00775146,13 C4,13 4,14.0421143 4,14.0421143 L4,26.9747314 C4,26.9747314 4,28 5.0368042,28 C6.0736084,28 15.940678,28 15.940678,28 L8,40.9995728 L8,32 C8,32 6.11159526,32 3.05579763,32 C1.56319402e-13,32 -1.77635684e-15,28.9941092 -1.77635684e-15,28.9941092 L-1.77635684e-15,12.0052935 C-1.77635684e-15,12.0052935 -1.94511027e-13,9 3.02607628,9 C4.68176834,9 6.61340538,9 8.02337108,9 C9.19037237,9 10,9 10,9 Z" id="Path"></path>
                    </g>
                </g>
            </g>
        </g>
    </g>
</svg>