<?xml version="1.0" encoding="UTF-8"?>
<svg width="50px" height="50px" viewBox="0 0 50 50" version="1.1" xmlns="http://www.w3.org/2000/svg" xmlns:xlink="http://www.w3.org/1999/xlink">
    <!-- Generator: Sketch 41.2 (35397) - http://www.bohemiancoding.com/sketch -->
    <title>User</title>
    <desc>Created with Sketch.</desc>
    <defs></defs>
    <g id="Page-1" stroke="none" stroke-width="1" fill="none" fill-rule="evenodd">
        <g id="Home_Page_Concept" transform="translate(-675.000000, -1391.000000)" stroke="#1F5DEA">
            <g id="Part-004" transform="translate(0.000000, 1206.000000)">
                <path d="M689.773587,199.06592 C690.216819,198.104672 690.866163,197.837152 690.891091,197.826816 L691.080179,197.75568 L691.087475,197.553216 C691.088691,197.50944 691.244947,193.157376 692.341171,191.088352 C693.398483,189.090464 697.948755,188.335936 697.994355,188.328032 L698.357939,188.269664 L697.814387,186.775808 C699.628051,187.115072 705.707443,188.375456 707.696211,190.366656 L708.034259,190.703488 C709.996883,192.91904 709.909331,197.486944 709.908115,197.535584 L709.906899,197.72832 L710.077139,197.815264 C710.082003,197.817696 710.609747,198.097376 711.056627,199.06592 C711.269427,199.528608 711.125939,199.857536 710.832275,200.446688 C710.608531,200.894176 710.330675,201.451104 710.260147,202.20928 C710.138547,203.53168 708.810067,203.704352 708.753523,203.711648 L708.554707,203.734752 L708.496947,203.925056 C708.472019,204.007744 705.919027,212.209056 700.522419,212.209056 C695.120339,212.209056 692.350899,204.001056 692.323539,203.918368 L692.262131,203.734144 L692.069395,203.711648 C692.013459,203.704352 690.686195,203.53168 690.564595,202.20928 C690.494675,201.45232 690.218035,200.896 689.995507,200.448512 C689.703059,199.858752 689.559571,199.529216 689.773587,199.06592 M689.959027,202.265216 C690.080627,203.587008 691.128819,204.138464 691.806739,204.283776 C692.255443,205.549024 695.072915,212.817056 700.522419,212.817056 C705.968883,212.817056 708.599091,205.564832 709.021043,204.28256 C709.698963,204.136032 710.744723,203.583968 710.865715,202.265216 C710.925299,201.620736 711.164851,201.141632 711.375827,200.718464 C711.673747,200.123232 711.954035,199.560832 711.608691,198.811168 C711.217139,197.961792 710.762963,197.550176 710.517939,197.37568 C710.518547,196.420512 710.394515,191.959008 708.113299,189.9216 L708.085939,189.89728 C707.989875,189.803648 707.885299,189.711232 707.774035,189.62064 L707.606835,189.472896 L707.606835,189.48992 C704.701203,187.302336 697.712851,186.135584 697.397299,186.083296 L696.884755,186 L697.538355,187.794208 C696.380723,188.024032 692.824531,188.87584 691.803699,190.803808 C690.760979,192.772512 690.528115,196.479488 690.487379,197.351968 C690.194323,197.51856 689.625235,197.936256 689.221523,198.811168 C688.875571,199.560832 689.155251,200.123232 689.451347,200.719072 C689.661107,201.14224 689.899443,201.621344 689.959027,202.265216 M719.664144,218.056131 C715.09624,216.787843 708.118224,214.884195 708.118224,214.884195 L707.813616,214.801507 L703.859792,231.695395 L701.754896,222.168643 L703.764336,215.777347 L700.310896,215.639939 L700.310896,215.635075 L700.310896,215.637507 L700.310896,215.635075 L700.310896,215.639939 L696.772336,215.777347 L698.733136,222.168643 L696.61,231.695395 L692.646448,214.801507 L692.338192,214.884195 C692.338192,214.884195 685.357136,216.787843 680.78984,218.056131 C676.054128,219.371843 675.9988,222.163779 676.000016,222.312131 L677.141232,233.983299 L677.746192,233.924323 L676.605584,222.282339 C676.605584,222.258019 676.65544,219.835139 680.949744,218.642243 C684.949776,217.530819 690.799344,215.932995 692.189232,215.553603 L696.608176,234.436259 L699.307696,222.220931 L699.32472,222.141891 L697.51592,216.353731 L700.225168,216.245507 L702.935024,216.353731 L701.126832,222.141891 L703.843376,234.436259 L708.26232,215.553603 C709.6516,215.932995 715.501168,217.530819 719.5012,218.642243 C723.760848,219.825411 723.844752,222.184451 723.847184,222.252547 L722.70536,233.924323 L723.310928,233.983299 L724.453968,222.282339 C724.453968,222.163779 724.399248,219.371843 719.664144,218.056131 M709.430653,228.330054 L717.334653,228.330054 L717.334653,227.722054 L709.430653,227.722054 L709.430653,228.330054 Z" id="User"></path>
            </g>
        </g>
    </g>
</svg>